<?xml version="1.0" encoding="UTF-8" standalone="no"?>
<svg
   xmlns:dc="http://purl.org/dc/elements/1.1/"
   xmlns:cc="http://creativecommons.org/ns#"
   xmlns:rdf="http://www.w3.org/1999/02/22-rdf-syntax-ns#"
   xmlns:svg="http://www.w3.org/2000/svg"
   xmlns="http://www.w3.org/2000/svg"
   xmlns:sodipodi="http://sodipodi.sourceforge.net/DTD/sodipodi-0.dtd"
   xmlns:inkscape="http://www.inkscape.org/namespaces/inkscape"
   width="437.98349"
   height="125.6"
   viewBox="0 0 33.769578 9.6840614"
   version="1.1"
   id="svg10"
   sodipodi:docname="british-council-1.svg"
   inkscape:version="0.92.5 (2060ec1f9f, 2020-04-08)">
  <metadata
     id="metadata16">
    <rdf:RDF>
      <cc:Work
         rdf:about="">
        <dc:format>image/svg+xml</dc:format>
        <dc:type
           rdf:resource="http://purl.org/dc/dcmitype/StillImage" />
        <dc:title></dc:title>
      </cc:Work>
    </rdf:RDF>
  </metadata>
  <defs
     id="defs14" />
  <sodipodi:namedview
     pagecolor="#ffffff"
     bordercolor="#111111"
     borderopacity="1"
     objecttolerance="10"
     gridtolerance="10"
     guidetolerance="10"
     inkscape:pageopacity="0"
     inkscape:pageshadow="2"
     inkscape:window-width="1920"
     inkscape:window-height="1020"
     id="namedview12"
     showgrid="false"
     fit-margin-top="0"
     fit-margin-left="0"
     fit-margin-right="0"
     fit-margin-bottom="0"
     inkscape:zoom="1.0431606"
     inkscape:cx="530.09619"
     inkscape:cy="309.83659"
     inkscape:window-x="0"
     inkscape:window-y="28"
     inkscape:window-maximized="1"
     inkscape:current-layer="svg10" />
  <g
     id="g1372"
     transform="scale(3.4217468)">
    <path
       d="M 3.380299,1.3057107 V 0.10602067 h 0.437446 c 0.09277,0 0.152461,0.0199 0.205471,0.0398 0.119329,0.0596 0.172283,0.17234 0.172283,0.27173 0,0.11271 -0.04638,0.19222 -0.139208,0.25186 0.139208,0.0331 0.21878,0.12595 0.21878,0.27173 0,0.16571003 -0.09945,0.28499003 -0.265164,0.33805003 -0.05964,0.0199 -0.125899,0.0265 -0.225349,0.0265 H 3.380299 Z M 3.91714,0.31149067 c -0.03313,-0.0132 -0.06626,-0.0199 -0.112703,-0.0199 h -0.22535 v 0.3115 h 0.212097 c 0.05964,0 0.09945,-0.007 0.132582,-0.0265 a 0.14207184,0.14207184 0 0 0 0.07289,-0.12596 c 0,-0.0596 -0.03313,-0.11264 -0.07952,-0.13915 z m 0.05969,0.49709 c -0.02651,-0.0133 -0.06632,-0.0199 -0.132581,-0.0199 H 3.579141 V 1.1200507 H 3.82437 c 0.07952,0 0.119329,-0.0133 0.15246,-0.0265 0.05964,-0.0265 0.08614,-0.0796 0.08614,-0.14583003 0,-0.0663 -0.02651,-0.11259 -0.08614,-0.13915 z M 5.468079,1.3057107 V 0.10602067 H 5.673606 V 1.3057107 Z m 1.491305,0 V 0.10602067 H 7.164911 V 1.3057107 Z M 7.821081,0.09940067 c 0.132469,0 0.265107,0.0331 0.338052,0.0663 l -0.0067,0.19885 c -0.106077,-0.053 -0.205415,-0.0862 -0.331314,-0.0862 -0.112759,0 -0.212097,0.0331 -0.212097,0.12596 0,0.24523 0.616412,0.14577 0.616412,0.55009 0,0.22535003 -0.185592,0.36456003 -0.463952,0.36456003 -0.185591,0 -0.311603,-0.053 -0.404371,-0.10608 l 0.0862,-0.16571 c 0.07295,0.0464 0.192274,0.0928 0.324744,0.0928 0.125899,0 0.238658,-0.0464 0.238658,-0.15241003 0,-0.25854 -0.609786,-0.14583 -0.609786,-0.55015 -5.6e-5,-0.21867 0.172227,-0.33799 0.424138,-0.33799 z M 9.193057,1.3057107 V 0.78875067 H 8.616346 V 1.3057107 H 8.410932 V 0.10602067 h 0.205414 v 0.49051 h 0.576711 v -0.49051 H 9.398471 V 1.3057107 Z m -5.362061,0.20548 c 0.125899,0 0.225349,0.0265 0.33137,0.0729 l -0.05964,0.17234 c -0.05964,-0.0266 -0.139208,-0.0596 -0.251854,-0.0596 -0.22535,0 -0.364558,0.19222 -0.364558,0.42419 0,0.23866 0.132582,0.43082 0.364558,0.43082 0.112646,0 0.192218,-0.0331 0.251854,-0.0596 l 0.05964,0.17228 c -0.106077,0.0464 -0.205471,0.0729 -0.33137,0.0729 -0.357931,0 -0.563402,-0.25185 -0.563402,-0.60978 0,-0.33805 0.205471,-0.61641 0.563402,-0.61641 z m 4.480598,0 c 0.132469,0 0.231975,0.0265 0.331313,0.0729 l -0.05964,0.17234 c -0.05964,-0.0266 -0.139208,-0.0596 -0.251799,-0.0596 -0.225405,0 -0.364557,0.19222 -0.364557,0.42419 0,0.23866 0.132582,0.43082 0.364557,0.43082 0.112647,0 0.192162,-0.0331 0.251799,-0.0596 l 0.05964,0.17228 c -0.09939,0.0464 -0.198844,0.0729 -0.331313,0.0729 -0.357988,0 -0.563402,-0.25185 -0.563402,-0.60978 -5.6e-5,-0.33805 0.205414,-0.61641 0.563402,-0.61641 z m -2.982723,0.60973 c 0,0.35793 -0.225293,0.61646 -0.563346,0.61646 -0.338052,0 -0.563401,-0.25185 -0.563401,-0.60978 0,-0.35793 0.225405,-0.61641 0.563401,-0.61641 0.344679,0 0.563346,0.25185 0.563346,0.60973 z m -0.212097,0 c 0,-0.25849 -0.152348,-0.4242 -0.351249,-0.4242 -0.198844,0 -0.351248,0.16571 -0.351248,0.43082 0,0.25854 0.15246,0.4242 0.351248,0.4242 0.198901,0 0.351249,-0.16566 0.351249,-0.43082 z m 0.351305,0.14583 v -0.74231 h 0.205527 v 0.74894 c 0,0.20547 0.106076,0.27836 0.27836,0.27836 0.172283,0 0.278359,-0.0729 0.278359,-0.27836 v -0.74894 H 6.43574 v 0.74231 c 0,0.3248 -0.185592,0.47063 -0.483774,0.47063 -0.298295,0 -0.483887,-0.14583 -0.483887,-0.47063 z m 1.352097,-0.41757 h -0.0066 c 0.0066,0.0398 0.0066,0.10608 0.0066,0.15909 v 0.70918 H 6.614762 v -1.19301 h 0.225405 l 0.550037,0.81525 h 0.0067 c -0.0067,-0.0397 -0.0067,-0.10607 -0.0067,-0.15908 v -0.65617 h 0.205527 v 1.19301 H 7.416709 Z m 1.981874,0.86827 v -1.19301 h 0.205415 v 1.19301 z m 0.391007,0 v -1.19301 h 0.205414 v 1.00747 h 0.470634 v 0.18554 z M 6.800354,0.11270067 H 5.832637 v 0.18554 H 6.217073 V 1.3057107 H 6.4226 V 0.29824067 H 6.800354 Z M 5.103634,1.3057107 C 4.931238,0.94116067 4.884855,0.84176067 4.811966,0.84176067 H 4.619747 V 1.3057107 H 4.414277 V 0.11270067 h 0.404315 c 0.311491,0 0.42425,0.15909 0.42425,0.338 0,0.16571 -0.0862,0.27173 -0.21878,0.31149 0.05307,0.0331 0.112759,0.14584 0.311604,0.54352003 z M 4.831788,0.29161067 H 4.619691 v 0.36456 h 0.205471 c 0.145834,0 0.212041,-0.0729 0.212041,-0.18559 5.6e-5,-0.0994 -0.05958,-0.17897 -0.205415,-0.17897 z"
       id="path4"
       inkscape:connector-curvature="0"
       style="clip-rule:evenodd;fill:#164c82;fill-rule:evenodd;stroke-width:0.05615488" />
    <path
       d="m 1.3719759,0.68268067 c 0,0.37781003 -0.3114911,0.68267003 -0.6893011,0.68267003 C 0.3114911,1.3653507 0,1.0604307 0,0.68268067 0,0.30492067 0.3114911,6.6958265e-7 0.6826748,6.6958265e-7 1.0604848,6.6958265e-7 1.3719759,0.30487067 1.3719759,0.68268067 Z m 1.4581741,0 A 0.6817202,0.6817202 0 0 1 2.147475,1.3653507 c -0.37781,0 -0.6826751,-0.30492 -0.6826751,-0.68267003 C 1.4647999,0.30492067 1.769721,6.6958265e-7 2.147475,6.6958265e-7 A 0.6817202,0.6817202 0 0 1 2.83015,0.68268067 Z M 1.3719759,2.1474807 c 0,0.37781 -0.3114911,0.68267 -0.6893011,0.68267 C 0.3114911,2.8301507 0,2.5252307 0,2.1474807 c 0,-0.37787 0.3114911,-0.68268 0.6826748,-0.68268 0.37781,0 0.6893011,0.30481 0.6893011,0.68268 z m 1.4581741,0 a 0.6817202,0.6817202 0 0 1 -0.682675,0.68267 0.6817202,0.6817202 0 0 1 -0.6826751,-0.68267 0.6817202,0.6817202 0 0 1 0.6826751,-0.68268 0.68166404,0.68166404 0 0 1 0.682675,0.68268 z"
       id="path6"
       inkscape:connector-curvature="0"
       style="clip-rule:evenodd;fill:#00a0e2;fill-rule:evenodd;stroke-width:0.05615488" />
  </g>
</svg>
